Coordinates
nRows=4
nColumns=38

# SIMM Motion File Header:
name Coordinates
datacolumns 38
datarows 4
otherdata 1
range 0.35461999999999999000 0.35761999999999999000

Units are S.I. units (second, meters, Newtons, ...)
Angles are in degrees.

endheader
time	pelvis_tilt	pelvis_list	pelvis_rotation	pelvis_tx	pelvis_ty	pelvis_tz	hip_flexion_r	hip_adduction_r	hip_rotation_r	knee_angle_r	ankle_angle_r	subtalar_angle_r	mtp_angle_r	hip_flexion_l	hip_adduction_l	hip_rotation_l	knee_angle_l	ankle_angle_l	subtalar_angle_l	mtp_angle_l	lumbar_extension	lumbar_bending	lumbar_rotation	arm_flex_r	arm_add_r	arm_rot_r	elbow_flex_r	pro_sup_r	wrist_flex_r	wrist_dev_r	arm_flex_l	arm_add_l	arm_rot_l	elbow_flex_l	pro_sup_l	wrist_flex_l	wrist_dev_l
      0.35461999999999999000	     -3.22607165751260490000	     -6.83049096278106040000	     -5.00558162102975950000	      1.05649077451367620000	      0.97034565127705996000	     -0.30388174159267434000	      9.19500911702481890000	     13.91967280799877900000	      8.76391461273087740000	    -35.97868900924560600000	     18.96741098142045300000	      0.00000000000002254736	     -0.00000000000003597831	     34.94222753896279000000	     -7.53523599706201620000	     -0.34476844858176520000	    -87.35101602177530800000	     -3.15300619793529700000	      0.00000000000000062531	      0.00000000000000165710	     -6.72480244728933660000	     10.76553087438584400000	     11.31510327887313000000	    -22.52814113896727100000	    -10.28008852709337800000	    -10.82360771366111900000	     73.05804343847117400000	     70.16036040618375600000	      0.00000000000000547722	      0.00000000000001855202	    -36.39330462374525200000	    -13.43381296963891600000	      0.73332897414992426000	     88.95166173606577300000	     96.02051650795176800000	     -0.00000000000000051637	      0.00000000000000012909
      0.35561999999999999000	     -3.27884875505414760000	     -6.77803040792606470000	     -4.99556280573643450000	      1.05637357644536120000	      0.97088969786360002000	     -0.30386563052292520000	      9.01344104955879820000	     13.85026397953462600000	      8.83006567737023400000	    -35.74743684502385600000	     18.83382976702936400000	      0.00000000000002278195	     -0.00000000000003709343	     35.10127513339868700000	     -7.48242467922745910000	     -0.33903545603518537000	    -87.10893464215588700000	     -3.12267987274975050000	      0.00000000000000057960	      0.00000000000000172019	     -6.67275985004677260000	     10.69525107946830100000	     11.37074086524088300000	    -22.50895429588504000000	    -10.25602500047598300000	    -10.86109792797473100000	     73.40020729418554900000	     70.20519349431850700000	      0.00000000000000559997	      0.00000000000001879633	    -36.51673025912732800000	    -13.45284134836310000000	      0.66156672330821154000	     89.05346604052081700000	     95.83783741719210500000	     -0.00000000000000053070	      0.00000000000000013496
      0.35661999999999999000	     -3.33161975794029750000	     -6.72415964397860130000	     -4.98554477836708370000	      1.05625961550200560000	      0.97144151730217976000	     -0.30385023740526701000	      8.83293362960236020000	     13.77938428543333400000	      8.89616899529041130000	    -35.51752154403839500000	     18.69482466169713000000	      0.00000000000002302298	     -0.00000000000003823923	     35.25732117630568800000	     -7.42799445425295080000	     -0.33461745687142891000	    -86.86144936912029400000	     -3.09317230408995680000	      0.00000000000000053531	      0.00000000000000178176	     -6.62015091334285350000	     10.62332345940397000000	     11.42545147241148700000	    -22.49142332293122200000	    -10.23340323690656300000	    -10.89519830022421100000	     73.74282001372793600000	     70.25179218721076800000	      0.00000000000000573103	      0.00000000000001903378	    -36.64088936178938400000	    -13.47292223365422000000	      0.58956131829886471000	     89.15904077880057300000	     95.65264354261691400000	     -0.00000000000000054540	      0.00000000000000014263
      0.35761999999999999000	     -3.38434878611777060000	     -6.66883946140735960000	     -4.97555241573545890000	      1.05614890386916940000	      0.97200100252554822000	     -0.30383559377415098000	      8.65351929192188680000	     13.70696456583799600000	      8.96210887010886380000	    -35.28905328392969000000	     18.55034686979964300000	      0.00000000000002324016	     -0.00000000000003937848	     35.41030120574133400000	     -7.37191842886130910000	     -0.33154627118315833000	    -86.60856127927094400000	     -3.06450260467650230000	      0.00000000000000049328	      0.00000000000000183191	     -6.56701334634130520000	     10.54971337771278400000	     11.47922917485194300000	    -22.47547895838759000000	    -10.21222340543908300000	    -10.92592852995737700000	     74.08574350356508400000	     70.30035122048570900000	      0.00000000000000586595	      0.00000000000001926385	    -36.76572637247097200000	    -13.49402405392068300000	      0.51732318418734469000	     89.26813812788395800000	     95.46562378587319100000	     -0.00000000000000056051	      0.00000000000000015266
